<svg id="Layer_1" enable-background="new 0 0 512 512" viewBox="0 0 512 512" xmlns="http://www.w3.org/2000/svg"><g><path d="m112 64c0-35.346-21.49-64-48-64s-48 28.654-48 64c0 24.265 10.128 45.373 25.055 56.225 4.081 2.967 6.411 7.77 6.243 12.813l-6.766 202.995c-.291 8.731 6.708 15.967 15.444 15.967h16.047c8.736 0 15.735-7.236 15.444-15.968l-6.766-202.995c-.168-5.042 2.163-9.846 6.243-12.813 14.928-10.851 25.056-31.959 25.056-56.224z" fill="#c4e2ff"/><path d="m405.151 0c-2.845 0-5.151 2.306-5.151 5.151v86.793c0 14.791 8.908 27.494 21.65 33.052 5.833 2.544 9.641 8.25 9.429 14.61l-6.548 196.427c-.29 8.731 6.709 15.967 15.445 15.967h16.047c8.736 0 15.735-7.236 15.444-15.968l-6.548-196.427c-.212-6.36 3.596-12.066 9.429-14.61 12.742-5.558 21.65-18.261 21.65-33.052v-86.792c.002-2.845-2.304-5.151-5.149-5.151z" fill="#c4e2ff"/><path d="m86.945 120.225c14.926-10.852 25.055-31.96 25.055-56.225 0-25.585-11.26-47.664-27.533-57.907 7.516 11.297 12.08 26.165 12.08 42.454 0 24.265-10.129 45.373-25.055 56.225-4.081 2.967-6.411 7.77-6.243 12.813l6.766 202.995c.291 8.731-6.708 15.968-15.444 15.968h-16.047c-.006 8.498 6.889 15.452 15.452 15.452h16.047c8.736 0 15.735-7.236 15.444-15.968l-6.766-202.995c-.168-5.042 2.163-9.846 6.244-12.812z" fill="#b3dafe"/><path d="m490.849 0h-10.302v76.491c0 14.791-8.908 27.494-21.65 33.052-5.833 2.544-9.641 8.25-9.429 14.61l6.548 196.427c.291 8.731-6.708 15.968-15.444 15.968h-16.047c-.006 8.499 6.889 15.453 15.452 15.453h16.047c8.736 0 15.735-7.236 15.444-15.968l-6.548-196.427c-.212-6.36 3.596-12.066 9.429-14.61 12.742-5.558 21.65-18.261 21.65-33.052v-86.793c.001-2.845-2.305-5.151-5.15-5.151z" fill="#b3dafe"/><circle cx="256" cy="171.543" fill="#fed402" r="120"/><circle cx="256" cy="171.543" fill="#fac600" r="72"/><circle cx="128" cy="384" fill="#26a6fe" r="128"/><circle cx="128" cy="384" fill="#0593fc" r="80"/><circle cx="384" cy="384" fill="#46cc8d" r="128"/><path d="m299.051 59.497c33.843 21.218 56.346 58.853 56.346 101.744 0 66.274-53.726 120-120 120-15.173 0-29.688-2.816-43.051-7.954 18.45 11.568 40.271 18.256 63.654 18.256 66.274 0 120-53.726 120-120 0-51.102-31.942-94.742-76.949-112.046z" fill="#fac600"/><path d="m174.639 264.763c36.464 22.556 60.758 62.908 60.758 108.935 0 70.692-57.308 128-128 128-16.456 0-32.187-3.106-46.639-8.763 19.541 12.088 42.576 19.065 67.242 19.065 70.692 0 128-57.308 128-128 0-54.236-33.732-100.593-81.361-119.237z" fill="#0593fc"/><path d="m430.639 264.763c36.464 22.556 60.758 62.908 60.758 108.935 0 70.692-57.308 128-128 128-16.456 0-32.187-3.106-46.639-8.763 19.541 12.088 42.576 19.065 67.242 19.065 70.692 0 128-57.308 128-128 0-54.236-33.732-100.593-81.361-119.237z" fill="#00c27a"/><circle cx="384" cy="384" fill="#00c27a" r="80"/><path d="m424.274 0v80c0 4.268 3.459 7.726 7.726 7.726s7.726-3.459 7.726-7.726v-80z" fill="#b3dafe"/><path d="m456.274 0v80c0 4.268 3.459 7.726 7.726 7.726s7.726-3.459 7.726-7.726v-80z" fill="#b3dafe"/><g fill="#eaf6ff"><path d=""/><path d="m264.353 218.35c-4.268 0-7.726-3.459-7.726-7.726v-70.436h-8.98c-4.268 0-7.726-3.459-7.726-7.726 0-4.268 3.459-7.726 7.726-7.726h16.706c4.268 0 7.726 3.459 7.726 7.726v78.162c0 4.267-3.458 7.726-7.726 7.726z"/><path d="m124.486 431.588c-15.147 0-16.267-.374-17.291-.715-2.57-.857-4.491-2.801-5.269-5.331-1.339-4.354.506-6.77 5.437-13.225 3.974-5.203 11.371-14.888 23.767-32.6 3.665-5.237 6.028-9.923 7.029-13.934l.264-2.06c-.229-6.568-5.644-11.841-12.267-11.841-5.853 0-10.919 4.157-12.043 9.885-.822 4.187-4.884 6.913-9.07 6.093-4.187-.822-6.914-4.883-6.093-9.07 2.544-12.957 13.986-22.36 27.206-22.36 15.289 0 27.726 12.438 27.726 27.726 0 .327-.021.655-.062.979l-.386 3.023c-.033.259-.078.514-.138.767-1.396 6.022-4.595 12.635-9.505 19.653-9.068 12.957-15.509 21.692-19.912 27.542 7.327-.001 16.697-.069 25.494-.179.032-.001.065-.001.099-.001 4.221 0 7.671 3.395 7.723 7.63.054 4.267-3.361 7.769-7.628 7.822-11.068.138-19.15.196-25.081.196z"/><path d="m403.184 384c5.262-5.049 8.543-12.149 8.543-20 0-15.289-12.438-27.726-27.726-27.726-13.22 0-24.662 9.404-27.206 22.361-.822 4.187 1.905 8.249 6.093 9.07 4.197.824 8.248-1.906 9.07-6.093 1.125-5.728 6.19-9.886 12.043-9.886 6.768 0 12.274 5.506 12.274 12.274s-5.506 12.274-12.274 12.274c-4.268 0-7.726 3.459-7.726 7.726s3.459 7.726 7.726 7.726c6.768 0 12.274 5.506 12.274 12.274s-5.506 12.274-12.274 12.274c-6.09 0-11.315-4.536-12.155-10.556-.078-.56-.119-1.138-.119-1.717 0-4.268-3.459-7.726-7.726-7.726s-7.726 3.459-7.726 7.726c0 1.295.091 2.594.268 3.857 1.898 13.608 13.703 23.869 27.459 23.869 15.289 0 27.726-12.438 27.726-27.726-.002-7.852-3.282-14.952-8.544-20.001z"/></g></g><g/><g/><g/><g/><g/><g/><g/><g/><g/><g/><g/><g/><g/><g/><g/></svg>