<svg id="Layer_1" enable-background="new 0 0 512 512" viewBox="0 0 512 512" xmlns="http://www.w3.org/2000/svg"><g><path d="m469.698 0h-203.396c-5.69 0-10.302 4.612-10.302 10.302v261.698l112 16 112-16v-261.698c0-5.69-4.612-10.302-10.302-10.302z" fill="#eaf6ff"/><path d="m469.698 0h-10.302v246.245c0 2.845-2.306 5.151-5.151 5.151h-198.245v20.604l112 16 112-16v-261.698c0-5.69-4.612-10.302-10.302-10.302z" fill="#d8ecfe"/><path d="m368 192c-17.673 0-32 14.327-32 32v27.396l32 36.604 32-36.604v-27.396c0-17.673-14.327-32-32-32z" fill="#c4e2ff"/><path d="m400 251.396h-64v20.604l32 16 32-16z" fill="#b3dafe"/><path d="m506.855 304.006-163.714.194-119.141 15.8v-48h282.849c2.845 0 5.151 2.306 5.151 5.151v21.704c0 2.843-2.302 5.148-5.145 5.151z" fill="#fe9738"/><path d="m506.849 272h-20.604c2.845 0 5.151 2.306 5.151 5.151v21.704c0 2.842-2.302 5.148-5.145 5.151h20.604c2.843-.003 5.145-2.308 5.145-5.151v-21.704c0-2.845-2.306-5.151-5.151-5.151z" fill="#fe860a"/><path d="m256.45 302.374-51.134-70.153c-18.421-25.274-47.812-40.221-79.087-40.221h-121.078c-2.845 0-5.151 2.306-5.151 5.151v245.698c0 2.845 2.306 5.151 5.151 5.151h394.849v-87.14c0-31.37-25.489-56.77-56.859-56.66l-82.51.291c-1.652.006-3.207-.782-4.181-2.117z" fill="#eb5569"/><path d="m371.763 311.834c4.854 8.354 7.634 18.062 7.634 28.422v87.14h-379.397v15.453c0 2.845 2.306 5.151 5.151 5.151h394.849v-87.14c0-20.939-11.356-39.218-28.237-49.026z" fill="#e53950"/><path d="m126.228 224h-73.077c-2.845 0-5.151 2.306-5.151 5.151v69.698c0 1.422.576 2.71 1.509 3.642l46.491-30.491 31.976-47.976c-.582-.016-1.164-.024-1.748-.024z" fill="#8ac9fe"/><path d="m212.071 295.815-20.641-28.318-10.001.211.787-12.852-2.759-3.786c-4.311-5.915-9.542-10.999-15.416-15.111l-52.041 36.041-16 32h37.072l17.757-8 4.098 8h52.981c4.213 0 6.645-4.781 4.163-8.185z" fill="#8ac9fe"/><path d="m127.976 224.024-78.467 78.467c.932.932 2.22 1.509 3.642 1.509h42.849l68.04-68.04c-10.49-7.343-23.033-11.587-36.064-11.936z" fill="#c4e2ff"/><path d="m405.698 464c5.69 0 10.302-4.612 10.302-10.302l-20.604-37.698h-75.396c-5.69 0-10.302 4.612-10.302 10.302v27.396c0 5.69 4.612 10.302 10.302 10.302z" fill="#c4e2ff"/><path d="m405.698 416h-10.302v17.095c0 5.69-4.612 10.302-10.302 10.302h-75.396v10.302c0 5.69 4.612 10.302 10.302 10.302h85.698c5.69 0 10.302-4.612 10.302-10.302v-27.396c0-5.691-4.612-10.303-10.302-10.303z" fill="#b3dafe"/><path d="m304 448c0 35.346-22.956 64-58.302 64s-64-28.654-64-64 28.654-64 64-64c13.728 0 26.446 4.322 36.868 11.679 16.413 11.587 21.434 30.702 21.434 52.321z" fill="#26a6fe"/><path d="m282.566 395.68c7.357 10.422 11.68 23.14 11.68 36.868 0 35.346-28.654 64-64 64-13.728 0-26.445-4.322-36.868-11.68 11.587 16.413 30.701 27.132 52.32 27.132 35.346 0 64-28.654 64-64 0-21.619-10.719-40.734-27.132-52.32z" fill="#0593fc"/><path d="m272.004 448.367c0 17.673-8.632 26.193-26.305 26.193-12.831 0-23.898-2.112-29-13.013-1.925-4.114-3-8.705-3-13.547 0-17.673 14.327-32 32-32 4.842 0 9.433 1.075 13.547 3 10.9 5.102 12.758 16.536 12.758 29.367z" fill="#c4e2ff"/><path d="m259.245 419c1.925 4.114 3.001 8.705 3.001 13.547 0 17.673-14.327 32-32 32-4.842 0-9.433-1.075-13.547-3 5.101 10.901 16.169 18.453 29 18.453 17.673 0 32-14.327 32-32-.001-12.831-7.553-23.898-18.454-29z" fill="#b3dafe"/><path d="m329.755 384c-14.224 0-25.755-11.531-25.755-25.755v-11.944c0-5.69 4.612-10.302 10.302-10.302h27.944c14.223.001 25.754 11.532 25.754 25.756v11.944c0 5.69-4.612 10.302-10.302 10.302h-27.943z" fill="#fedf30"/><path d="m80 343.726h-32c-4.268 0-7.726-3.459-7.726-7.726s3.459-7.726 7.726-7.726h32c4.268 0 7.726 3.459 7.726 7.726s-3.458 7.726-7.726 7.726z" fill="#c4e2ff"/><path d="m133.072 304h21.856l36.502-36.503-9.214-12.641z" fill="#c4e2ff"/><path d="m432 96-64 20.604-64-20.604v-6.793c0-22.758 18.449-41.207 41.207-41.207h45.586c4.609 0 9.041.757 13.178 2.152 16.295 5.497 13.625 21.623 13.625 39.773z" fill="#fdb97e"/><path d="m403.971 50.152c4.679 6.685 7.425 14.823 7.425 23.602v1.642c0 2.845-2.306 5.151-5.151 5.151h-101.333c-.597 2.792-.912 5.689-.912 8.66v6.793l64 20.604 64-20.604v-6.793c0-18.149-11.734-33.558-28.029-39.055z" fill="#fea95c"/><path d="m324.065 160h67.266c7.091 0 24.912-5.547 26.632-12.426l14.037-19.574-64-20.604-64 20.604 5.074 20.295c1.72 6.879 7.9 11.705 14.991 11.705z" fill="#fdb97e"/><path d="m368 107.396-10.302 3.316 53.698 17.288-5.074 20.295c-1.72 6.879-7.901 11.705-14.991 11.705h20.604c7.091 0 13.272-4.826 14.991-11.705l5.074-20.295z" fill="#fea95c"/><path d="m411.396 128h-107.396c-5.69 0-10.302-4.612-10.302-10.302v-11.396c0-5.69 4.612-10.302 10.302-10.302h107.396c5.69 0 23.457 4.612 23.457 10.302v11.396c.001 5.69-17.767 10.302-23.457 10.302z" fill="#eb5569"/><path d="m432 96h-20.604c5.689 0 10.302 4.612 10.302 10.302v11.396c0 5.69-4.612 10.302-10.302 10.302h20.604c5.69 0 10.302-4.612 10.302-10.302v-11.396c0-5.69-4.612-10.302-10.302-10.302z" fill="#e53950"/></g><g/><g/><g/><g/><g/><g/><g/><g/><g/><g/><g/><g/><g/><g/><g/></svg>