<svg id="Capa_1" enable-background="new 0 0 497.268 497.268" height="512" viewBox="0 0 497.268 497.268" width="512" xmlns="http://www.w3.org/2000/svg"><g><path d="m495.258 241.134-116.817-202.333c-2.679-4.641-7.631-7.5-12.99-7.5h-233.833c-.004.003-.008.005-.012.007l-123.926 204.326 125.477 217.333 252.294-7c.099-.057.212-.122.311-.179l109.496-189.653c2.68-4.642 2.68-10.36 0-15.001z" fill="#fff0af"/><path d="m151.817 445.967c-5.359 0-10.311-2.859-12.99-7.5l-116.817-202.333c-2.68-4.641-2.68-10.359 0-15l109.596-189.826c-5.277.074-10.135 2.913-12.779 7.493l-116.817 202.333c-2.68 4.641-2.68 10.359 0 15l116.817 202.333c2.68 4.641 7.631 7.5 12.99 7.5h233.634c5.359 0 10.311-2.859 12.99-7.5l7.221-12.507c-.071.001-.141.007-.211.007z" fill="#ffe07d"/><g fill="#dce6eb"><circle cx="311.803" cy="388.656" r="8"/><circle cx="165.673" cy="372.182" r="8"/><circle cx="341.803" cy="370.656" r="8"/></g><path d="m352.965 179.738-96.832-55.906c-4.641-2.679-10.359-2.679-15 0l-84.332 48.689-10 43.094 91.832 141.847c4.641 2.68 10.359 2.68 15 0l106.832-65.906v-98.827c0-2.68-5.179-11.652-7.5-12.991z" fill="#f7f9fa"/><path d="m156.802 172.521-12.5 7.217c-2.32 1.34-4.195 3.248-5.49 5.49l17.99 20.387z" fill="#dce6eb"/><path d="m248.634 347.461-10 15.865 10 12.119c2.59 0 5.18-.67 7.5-2.01l96.832-55.906c4.641-2.68 7.5-7.631 7.5-12.99v-12.984l-96.832 55.906c-4.641 2.68-10.359 2.68-15 0z" fill="#dce6eb"/><path d="m360.465 192.728c0-2.679-.715-5.257-2.01-7.5s-3.17-4.151-5.49-5.49l-111.831 64.566-84.332-48.689-10 100.167c0 5.359 2.859 10.311 7.5 12.99l94.332 38.689v-90.167z" fill="#dce6eb"/><path d="m164.302 298.772c-4.641-2.679-7.5-7.631-7.5-12.99v-90.167l-17.99-10.387c-1.295 2.243-2.01 4.821-2.01 7.5v111.812c0 5.359 2.859 10.311 7.5 12.99l96.832 55.906c2.32 1.34 4.91 2.01 7.5 2.01v-27.984z" fill="#b9c3cd"/></g></svg>