<svg id="Capa_1" enable-background="new 0 0 512 512" height="512" viewBox="0 0 512 512" width="512" xmlns="http://www.w3.org/2000/svg"><g><path d="m442.012 80.129h-37.935c-5.643 0-10.217 4.574-10.217 10.217v36.079h58.368v-36.079c.001-5.642-4.573-10.217-10.216-10.217z" fill="#60b7ff"/><path d="m367.537 59.701v420.179l-123.559 32.12h-210.517c-17.75 0-32.131-14.381-32.131-32.121v-420.178c0-17.74 14.381-32.121 32.131-32.121l156.546 50.067 130.637-44.978 14.773-5.089c17.739 0 32.12 14.381 32.12 32.121z" fill="#d77f4a"/><path d="m367.537 59.701v420.179c0 17.74-14.381 32.121-32.121 32.121h-32.131c17.75 0 32.131-14.381 32.131-32.121v-420.179c0-11.342-5.882-21.325-14.773-27.032l14.773-5.089c17.74 0 32.121 14.381 32.121 32.121z" fill="#c86d36"/><path d="m304.511 27.58 22.532 385.746-170.146 32.074h-105.665c-9.818 0-17.771-7.953-17.771-17.771v-400.049z" fill="#dcf5f8"/><path d="m304.511 27.58v271.061c0 6.073-4.006 11.498-9.873 13.065-14.682 3.92-27.446 13.253-35.846 25.257-19.46-27.825-62.377-41.321-98.33-6.264-26.651 25.991-18.183 74.018-3.564 114.7h129.832 30.905c9.82 0 17.781-7.961 17.781-17.781v-112.186l18.761-49.826-18.763-69.613.002-168.413z" fill="#c2eef2"/><g><g><path d="m295.689 146.834h-148.252c-4.267 0-7.726-3.459-7.726-7.726s3.459-7.726 7.726-7.726h148.252c4.268 0 7.726 3.459 7.726 7.726s-3.458 7.726-7.726 7.726z" fill="#918291"/></g></g><g><g><path d="m193.345 321.675-31.523 7.726h-14.382c-4.265 0-7.726-3.461-7.726-7.726s3.461-7.726 7.726-7.726h38.178z" fill="#918291"/></g></g><path d="m234.098 321.675c0 4.265-3.461 7.726-7.726 7.726h-64.551c7.737-7.242 15.762-12.28 23.797-15.453h40.754c4.265 0 7.726 3.462 7.726 7.727z" fill="#7a6d79"/><g><g><path d="m295.689 238.119h-148.252c-4.267 0-7.726-3.459-7.726-7.726s3.459-7.726 7.726-7.726h148.252c4.268 0 7.726 3.459 7.726 7.726 0 4.266-3.458 7.726-7.726 7.726z" fill="#918291"/></g></g><path d="m221.201 56.754-104.43.002c-8.699 0-15.75-7.052-15.75-15.75v-25.254c0-8.699 7.052-15.75 15.75-15.75l104.43-.002c8.699 0 29.547 7.052 29.547 15.75v25.254c0 8.699-20.849 15.75-29.547 15.75z" fill="#918291"/><path d="m267.847 15.753v25.25c0 8.705-7.046 15.751-15.741 15.751h-30.905c8.695 0 15.741-7.047 15.741-15.751v-25.25c0-8.695-7.046-15.751-15.741-15.751h30.905c8.695 0 15.741 7.057 15.741 15.751z" fill="#7a6d79"/><path d="m510.669 466.332c0 25.219-20.449 45.668-45.668 45.668h-83.908c-25.229 0-45.678-20.449-45.678-45.668v-185.982l13.354-34.811-13.354-49.546c0-14 5.594-27.413 15.525-37.272l42.917-42.598h27.466l73.831 42.598c9.931 9.859 15.515 23.272 15.515 37.272l-15.451 40.496 15.453 43.86z" fill="#6bd9e7"/><path d="m510.67 195.993-15.453 40.496 15.453 43.865v185.978c0 25.219-20.449 45.668-45.668 45.668h-30.905c25.219 0 45.668-20.449 45.668-45.668v-270.339c0-14-5.583-27.413-15.514-37.272l-42.928-42.598h30.905l42.928 42.598c9.931 9.859 15.514 23.272 15.514 37.272z" fill="#2ed1e2"/><g><path d="m465.996 445.324h-79.444c-4.268 0-7.726-3.459-7.726-7.726s3.459-7.726 7.726-7.726h79.444c4.268 0 7.726 3.459 7.726 7.726s-3.458 7.726-7.726 7.726z" fill="#2ed1e2"/></g><g><path d="m465.996 413.325h-79.444c-4.268 0-7.726-3.459-7.726-7.726s3.459-7.726 7.726-7.726h79.444c4.268 0 7.726 3.459 7.726 7.726s-3.458 7.726-7.726 7.726z" fill="#2ed1e2"/></g><g><path d="m465.996 381.326h-79.444c-4.268 0-7.726-3.459-7.726-7.726s3.459-7.726 7.726-7.726h79.444c4.268 0 7.726 3.459 7.726 7.726s-3.458 7.726-7.726 7.726z" fill="#2ed1e2"/></g><path d="m373.321 473.286c-8.973 17.081-23.194 38.714-37.904 38.714h-91.439c-14.711 0-29.216-7.417-38.189-24.498-20.84-42.474-51.354-120.799-14.422-156.803 35.953-35.057 78.87-21.572 98.33 6.264 8.365-11.95 21.047-21.263 35.644-25.209 23.615 0 50.3 25.209 50.3 25.209s18.531 93.849-2.32 136.323z" fill="#fe646f"/><path d="m373.605 487.502c-8.973 17.081-23.478 24.498-38.188 24.498h-18.945c8.664-3.667 20.603-13.784 26.228-24.498 20.851-42.474 51.354-120.799 14.422-156.803-10.261-10.003-21.088-16.061-31.781-18.945 19.398-5.254 42.175-1.061 62.686 18.945 36.932 36.005 6.429 114.329-14.422 156.803z" fill="#fd4755"/><path d="m279.6 313.948-26.072-57.947-25.525-25.609-18.083-.3c-2.447 3.156-3.675 7.166-3.13 11.646 3.091 25.379 15.387 65.93 53.474 85.757z" fill="#70d162"/><path d="m289.955 336.963c-11.353-1.916-21.18-5.192-29.69-9.467 1.72-21.119.144-72.236-50.345-97.403 3.997-5.244 11.126-7.912 18.141-5.408 79.304 28.194 61.894 112.278 61.894 112.278z" fill="#58c945"/><g><path d="m103.376 159.992h-18.62c-6.392 0-11.574-5.182-11.574-11.574v-18.62c0-6.392 5.182-11.574 11.574-11.574h18.62c6.392 0 11.574 5.182 11.574 11.574v18.62c.001 6.392-5.181 11.574-11.574 11.574z" fill="#70d162"/></g><g><path d="m103.376 251.276h-18.62c-6.392 0-11.574-5.182-11.574-11.574v-18.62c0-6.392 5.182-11.574 11.574-11.574h18.62c6.392 0 11.574 5.182 11.574 11.574v18.62c.001 6.392-5.181 11.574-11.574 11.574z" fill="#70d162"/></g><g><path d="m103.376 342.561h-18.62c-6.392 0-11.574-5.182-11.574-11.574v-18.62c0-6.392 5.182-11.574 11.574-11.574h18.62c6.392 0 11.574 5.182 11.574 11.574v18.62c.001 6.392-5.181 11.574-11.574 11.574z" fill="#70d162"/></g><path d="m479.765 280.354-144.35-.004v-84.357h144.35l20.601 40.496z" fill="#60b7ff"/><path d="m479.765 195.993h30.905v84.361h-30.905z" fill="#26a6fe"/></g></svg>