<svg id="Layer_1" enable-background="new 0 0 512 512" viewBox="0 0 512 512" xmlns="http://www.w3.org/2000/svg"><g><circle cx="256" cy="256" fill="#46cc8d" r="256"/><path d="m416.547 512h-321.094c-8.535 0-15.453-6.918-15.453-15.453v-481.094c0-8.535 6.918-15.453 15.453-15.453h321.095c8.534 0 15.452 6.918 15.452 15.453l-7.785 478.562c0 8.534.867 17.985-7.668 17.985z" fill="#26a6fe"/><path d="m416.547 0h-3.091v478.004c0 8.534-6.918 15.453-15.453 15.453h-318.003v3.091c0 8.533 6.918 15.452 15.453 15.452h321.095c8.534 0 15.453-6.919 15.453-15.453v-481.094c-.001-8.534-6.919-15.453-15.454-15.453z" fill="#0593fc"/><path d="m346.849 32h-181.698c-2.845 0-5.151 2.306-5.151 5.151v6.793c0 19.913-16.143 36.056-36.056 36.056h-6.793c-2.845 0-5.151 2.306-5.151 5.151v341.698c0 2.845 2.306 5.151 5.151 5.151h6.793c19.913 0 36.056 16.143 36.056 36.056v6.793c0 2.845 2.306 5.151 5.151 5.151h181.698c2.845 0 5.151-2.306 5.151-5.151v-6.793c0-19.913 16.143-36.056 36.056-36.056h6.793c2.845 0 5.151-2.306 5.151-5.151v-341.698c0-2.845-2.306-5.151-5.151-5.151h-6.793c-19.913 0-36.056-16.143-36.056-36.056v-6.793c0-2.845-2.306-5.151-5.151-5.151z" fill="#eaf6ff"/><path d="m256 96c-43.397 0-78.578 35.18-78.578 78.577v1.423l78.578 16 65.584-16 6.426-3.83c0-26.487-6.537-47.505-26.617-61.74-12.82-9.088-28.482-14.43-45.393-14.43z" fill="#c4e2ff"/><path d="m301.393 110.43c11.082 13.545 17.732 30.858 17.732 49.725 0 .786-.637 1.423-1.423 1.423h-139.209c-.704 4.229-1.071 8.571-1.071 13v1.422l78.578 16 78.577-16v-1.423c0-26.486-13.104-49.912-33.184-64.147z" fill="#b3dafe"/><path d="m310.793 208h-130.189c-11.379 0-20.604-9.225-20.604-20.604v-8.821c0-1.422 1.153-2.575 2.575-2.575h166.245c1.422 0 13.877 1.153 13.877 2.575v8.821c.001 11.379-20.525 20.604-31.904 20.604z" fill="#26a6fe"/><path d="m349.425 176h-20.604c1.422 0 2.575 1.153 2.575 2.575v8.821c0 11.379-9.225 20.604-20.604 20.604h20.604c11.379 0 20.604-9.225 20.604-20.604v-8.821c0-1.422-1.153-2.575-2.575-2.575z" fill="#0593fc"/><circle cx="256" cy="80" fill="#fed402" r="16"/><g><g><circle cx="384" cy="48" fill="#eaf6ff" r="7.726"/></g></g><g><g><circle cx="128" cy="48" fill="#eaf6ff" r="7.726"/></g></g><g><g><circle cx="384" cy="464" fill="#eaf6ff" r="7.726"/></g></g><g><g><circle cx="128" cy="464" fill="#eaf6ff" r="7.726"/></g></g><g><g><circle cx="160" cy="256" fill="#fed402" r="7.726"/></g></g><g><g><circle cx="160" cy="320" fill="#26a6fe" r="7.726"/></g></g><g><g><circle cx="160" cy="384" fill="#46cc8d" r="7.726"/></g></g><path d="m209.567 153.725c-1.324 0-2.665-.34-3.891-1.056-3.684-2.153-4.926-6.885-2.773-10.569 9.724-16.64 27.701-26.977 46.916-26.977 4.267 0 7.726 3.459 7.726 7.726 0 4.268-3.459 7.726-7.726 7.726-13.745 0-26.61 7.403-33.574 19.321-1.437 2.459-4.022 3.829-6.678 3.829z" fill="#d8ecfe"/><path d="m223.999 263.726h-31.999c-4.267 0-7.726-3.459-7.726-7.726s3.459-7.726 7.726-7.726h31.999c4.267 0 7.726 3.459 7.726 7.726s-3.459 7.726-7.726 7.726z" fill="#fed402"/><path d="m320 295.726h-128c-4.267 0-7.726-3.459-7.726-7.726s3.459-7.726 7.726-7.726h128c4.267 0 7.726 3.459 7.726 7.726s-3.459 7.726-7.726 7.726z" fill="#fed402"/><path d="m240 327.726h-48c-4.267 0-7.726-3.459-7.726-7.726s3.459-7.726 7.726-7.726h48c4.267 0 7.726 3.459 7.726 7.726s-3.459 7.726-7.726 7.726z" fill="#26a6fe"/><path d="m352 359.726h-160c-4.267 0-7.726-3.459-7.726-7.726s3.459-7.726 7.726-7.726h160c4.267 0 7.726 3.459 7.726 7.726s-3.459 7.726-7.726 7.726z" fill="#26a6fe"/><g fill="#46cc8d"><path d="m256 391.726h-64c-4.267 0-7.726-3.459-7.726-7.726s3.459-7.726 7.726-7.726h64c4.267 0 7.726 3.459 7.726 7.726s-3.459 7.726-7.726 7.726z"/><path d="m320 423.726h-128c-4.267 0-7.726-3.459-7.726-7.726s3.459-7.726 7.726-7.726h128c4.267 0 7.726 3.459 7.726 7.726s-3.459 7.726-7.726 7.726z"/></g></g><g/><g/><g/><g/><g/><g/><g/><g/><g/><g/><g/><g/><g/><g/><g/></svg>