<svg id="Capa_1" enable-background="new 0 0 512 512" viewBox="0 0 512 512" xmlns="http://www.w3.org/2000/svg"><g><g><g><g><path d="m161.223 238.221v-59.523c0-7.079 5.759-12.839 12.838-12.839h35.19v-82.929h-129.631c-2.845 0-5.151 2.306-5.151 5.151v150.14z" fill="#60b7ff"/></g><path d="m176.676 82.93v53.584c7.601 7.055 12.362 17.127 12.362 28.315 0 .346-.017.687-.026 1.03h20.239v-82.929z" fill="#26a6fe"/><g><path d="m74.469 88.08v58.72l63.871-63.87h-58.72c-2.845 0-5.151 2.306-5.151 5.15z" fill="#ffe177"/></g><g><path d="m150.406 203.461c3.756 0 7.383-.546 10.817-1.546v-23.217c0-7.079 5.759-12.839 12.838-12.839h14.951c.009-.343.026-.685.026-1.03 0-21.336-17.296-38.632-38.632-38.632s-38.632 17.296-38.632 38.632 17.297 38.632 38.632 38.632z" fill="#fff"/></g><g><g fill="#fe646f"><path d="m307.509 125.167c0-.353.027-.699.065-1.041-.007 0-.015-.001-.022-.001h-1l-.043 1.042v27.369l.289.646.711-.859z"/><path d="m208.385 72.064-.164.095v93.7h88.084l2.66-3.214z"/><path d="m307.904 122.51c.846-2.811 2.991-5.063 5.738-6.056v-102.454h-105.421v8.827z"/></g><g fill="#fd4755"><path d="m281.068 144.747v21.112h15.237l2.66-3.214z"/><path d="m307.904 122.51c.846-2.811 2.991-5.063 5.738-6.056v-102.454h-32.575v81.673z"/></g></g><g><path d="m307.509 152.323v-27.156c0-1.313.278-2.561.773-3.694l-100.061-100.061v51.902l90.104 90.104z" fill="#ffe177"/></g><g><path d="m307.509 152.323v-27.156c0-1.313.278-2.561.773-3.694l-27.214-27.214v51.902l17.257 17.257z" fill="#ffd15b"/></g><g><path d="m281.316 238.221v-50.913c0-2.153.756-4.253 2.129-5.912l13.712-16.567h-123.095c-7.659 0-13.868 6.209-13.868 13.869v59.523z" fill="#a2e62e"/></g><g><path d="m250.361 238.221c.315-1.753.488-3.556.488-5.4 0-16.784-13.606-30.39-30.39-30.39s-30.39 13.606-30.39 30.39c0 1.844.173 3.646.488 5.4z" fill="#fff"/></g><g><g><path d="m417.738 152.982v-27.815c0-5.69-4.612-10.302-10.302-10.302h-90.656c-5.69 0-10.302 4.612-10.302 10.302v27.815z" fill="#60b7ff"/></g><g><path d="m407.437 114.865h-22.226v38.117h32.528v-27.815c-.001-5.69-4.613-10.302-10.302-10.302z" fill="#26a6fe"/></g><g><path d="m392.546 187.308c0-2.161.759-4.267 2.136-5.931l22.956-27.89.101-1.535h-111.26l-23.827 28.787c-1.529 1.847-2.366 4.17-2.366 6.569v50.913h112.26z" fill="#8ac9fe"/></g><g><path d="m392.546 187.308c0-2.161.759-4.267 2.136-5.931l22.972-27.906.084-1.518h-32.528l-23.827 28.787c-1.529 1.847-2.366 4.17-2.366 6.569v50.913h33.528v-50.914z" fill="#60b7ff"/></g><g><path d="m391.546 187.308v50.913h51.947v-50.961c0-2.369-.816-4.665-2.312-6.503l-23.443-28.805-23.827 28.787c-1.529 1.847-2.365 4.17-2.365 6.569z" fill="#0593fc"/></g></g><g><path d="m408.467 463.097c-1.153 0-2.091-.938-2.091-2.091v-94.325c0-1.153.938-2.09 2.091-2.09h51.637v-43.513l-1.264-1.03h-56.034c-3.592 0-6.891-2.104-8.406-5.361l-35.357-76.003-1.831-1.493-1.044 1.043v273.766h93.634c5.69 0 10.302-4.612 10.302-10.302v-38.602h-51.637z" fill="#ea9b58"/><g fill="#d88a55"><path d="m460.104 364.59v-43.512l-1.264-1.031h-30.8v44.543z"/><path d="m428.04 463.097v6.151c0 5.69-4.612 10.302-10.302 10.302h-61.57v32.45h93.634c5.69 0 10.302-4.612 10.302-10.302v-38.602h-32.064z"/></g><path d="m408.467 363.59c-1.707 0-3.091 1.384-3.091 3.091v61.782l2.589 1h49.255l2.883-1v-64.873z" fill="#ffe5c2"/><g><path d="m428.04 363.59h32.063v64.873h-32.063z" fill="#fed2a4"/></g><g><path d="m405.376 461.006c0 1.707 1.384 3.091 3.091 3.091h51.637v-35.634h-54.727v32.543z" fill="#a2e62e"/></g><g><path d="m428.04 428.463h32.063v35.634h-32.063z" fill="#97d729"/></g><g><path d="m355.629 238.221-33.77 76.307c-1.484 3.353-4.812 5.52-8.478 5.52h-259.45l-3.771 1.03v180.621c0 5.69 4.612 10.302 10.302 10.302h296.75v-274.81z" fill="#fed2a4"/></g><g><path d="m355.629 238.221-30.549 69.03v146.544c0 14.224-11.531 25.755-25.755 25.755h-249.165v22.149c0 5.69 4.612 10.302 10.302 10.302h296.75v-274.81z" fill="#ffbd86"/></g><g><path d="m491.051 321.077h-88.245c-4.007 0-7.65-2.323-9.341-5.956l-36.254-77.93h97.636c3.206 0 6.12 1.859 7.472 4.765l33.401 71.798c1.59 3.414-.903 7.323-4.669 7.323z" fill="#ffe5c2"/></g><g><path d="m495.722 313.754-33.401-71.798c-1.352-2.906-4.267-4.765-7.472-4.765h-24.736l22.596 48.572c1.588 3.414-.904 7.324-4.67 7.324h-64.823l10.251 22.035c1.69 3.633 5.334 5.956 9.34 5.956h88.245c3.765-.001 6.258-3.91 4.67-7.324z" fill="#fed2a4"/></g><g><path d="m313.381 321.077h-292.433c-3.724 0-6.217-3.83-4.71-7.235l31.751-71.745c1.32-2.983 4.275-4.906 7.536-4.906h301.687l-34.41 77.754c-1.65 3.728-5.344 6.132-9.421 6.132z" fill="#fff3de"/></g><g><path d="m321.307 237.191-22.022 49.763c-1.65 3.728-5.343 6.133-9.421 6.133h-264.441l-9.185 20.756c-1.507 3.405.986 7.235 4.71 7.235h292.433c4.077 0 7.771-2.404 9.421-6.133l34.41-77.754z" fill="#ffe5c2"/></g><g><g><path d="m286.163 368.278c-.54-1.373-1.621-2.454-2.995-2.995-22.232-8.75-48.501-4.155-66.474 13.817-17.973 17.973-22.568 44.241-13.817 66.474.54 1.373 1.621 2.454 2.995 2.995 22.232 8.75 48.501 4.155 66.474-13.817 17.973-17.973 22.568-44.242 13.817-66.474z" fill="#97d729"/></g><g><path d="m286.163 368.278c-.54-1.373-1.621-2.454-2.995-2.995-5.654-2.225-11.57-3.583-17.543-4.082 1.835 12.433-.868 24.604-7.111 35.598 1.198 2.745.681 6.058-1.565 8.303l-45.383 45.383c20.903 5.956 44.32.725 60.78-15.735 17.973-17.971 22.568-44.24 13.817-66.472z" fill="#8bc727"/></g><g><path d="m190.997 467.949c-1.919 0-3.839-.732-5.303-2.197-2.929-2.929-2.929-7.678 0-10.606l60.649-60.649c2.929-2.929 7.678-2.93 10.606 0 2.929 2.929 2.929 7.678 0 10.606l-60.649 60.649c-1.464 1.464-3.383 2.197-5.303 2.197z" fill="#a2e62e"/></g><g><path d="m122.165 382.33c-1.436.519-2.574 1.656-3.092 3.092-4.646 12.868-1.821 27.826 8.493 38.14s25.272 13.139 38.14 8.493c1.436-.519 2.574-1.656 3.092-3.092 4.646-12.868 1.821-27.826-8.493-38.14s-25.272-13.139-38.14-8.493z" fill="#97d729"/></g><g><path d="m160.305 390.823c-1.782-1.782-3.71-3.325-5.734-4.66 3.865 6.526 5.526 13.995 4.969 21.329-.601 7.916-6.777 14.127-14.691 14.741-7.911.614-15.983-1.35-22.861-5.885 1.523 2.571 3.368 5.004 5.578 7.214 10.314 10.314 25.272 13.139 38.139 8.493 1.437-.519 2.575-1.657 3.093-3.093 4.646-12.868 1.82-27.825-8.493-38.139z" fill="#8bc727"/></g></g></g></g></g><g><g><path d="m319.652 15h-117.441c-4.142 0-7.5-3.358-7.5-7.5s3.358-7.5 7.5-7.5h117.441c4.142 0 7.5 3.358 7.5 7.5s-3.358 7.5-7.5 7.5z" fill="#e1d3ce"/></g><g><path d="m190.997 467.949c-1.919 0-3.839-.732-5.303-2.197-2.929-2.929-2.929-7.678 0-10.606l60.649-60.649c2.929-2.929 7.678-2.93 10.606 0 2.929 2.929 2.929 7.678 0 10.606l-60.649 60.649c-1.464 1.464-3.383 2.197-5.303 2.197z" fill="#a2e62e"/></g></g></g><g/><g/><g/><g/><g/><g/><g/><g/><g/><g/><g/><g/><g/><g/><g/></svg>