<svg id="Capa_1" enable-background="new 0 0 512 512" height="512" viewBox="0 0 512 512" width="512" xmlns="http://www.w3.org/2000/svg"><g><circle cx="256" cy="256" fill="#8d9ca8" r="256"/><path d="m256 0c-5.19 0-10.339.173-15.453.478 134.188 7.991 240.548 119.327 240.548 255.522s-106.36 247.531-240.547 255.522c5.113.305 10.262.478 15.452.478 141.385 0 256-114.615 256-256s-114.615-256-256-256z" fill="#7a8c98"/><circle cx="256" cy="256" fill="#ffeee7" r="195.734"/><path d="m256 60.266c-5.201 0-10.354.207-15.453.606 100.877 7.878 180.282 92.228 180.282 195.128s-79.405 187.25-180.282 195.129c5.099.398 10.252.606 15.453.606 108.101 0 195.734-87.633 195.734-195.734s-87.633-195.735-195.734-195.735z" fill="#ffe2db"/><g fill="#80d261"><path d="m144.853 176.065-7.784-3.272c-3.813-1.604-8.215.187-9.821 4.006-1.605 3.818.188 8.215 4.007 9.821l7.784 3.272c.949.399 1.935.589 2.904.589 2.928 0 5.71-1.726 6.916-4.595 1.606-3.818-.188-8.214-4.006-9.821z"/><path d="m189.157 211.51c-2.977-2.881-7.725-2.803-10.605.174l-5.872 6.067c-2.88 2.977-2.803 7.725.174 10.605 1.456 1.409 3.337 2.11 5.215 2.11 1.961 0 3.919-.764 5.391-2.284l5.872-6.067c2.879-2.976 2.802-7.724-.175-10.605z"/><path d="m262.023 387.387c-1.79-3.736-6.27-5.313-10.004-3.525-3.735 1.789-5.314 6.268-3.525 10.004l3.646 7.615c1.289 2.691 3.973 4.263 6.77 4.263 1.086 0 2.189-.237 3.234-.737 3.735-1.789 5.314-6.268 3.525-10.004z"/><path d="m205.95 381.423-8.388-.973c-4.111-.48-7.836 2.472-8.314 6.586-.477 4.115 2.472 7.837 6.586 8.314l8.388.973c.294.034.585.051.874.051 3.755 0 6.997-2.816 7.44-6.637.477-4.115-2.472-7.837-6.586-8.314z"/><path d="m234.085 106.947c-1.79-3.736-6.269-5.314-10.004-3.525s-5.314 6.268-3.525 10.004l3.646 7.615c1.289 2.691 3.973 4.263 6.77 4.263 1.086 0 2.189-.237 3.234-.737 3.735-1.789 5.314-6.268 3.525-10.004z"/><path d="m268.24 135.649-5.802 6.136c-2.847 3.01-2.714 7.757.296 10.603 1.45 1.371 3.303 2.051 5.152 2.051 1.989 0 3.976-.787 5.45-2.347l5.802-6.136c2.846-3.01 2.714-7.757-.296-10.603-3.01-2.845-7.757-2.713-10.602.296z"/><path d="m126.765 228.385c-3.229-2.594-7.947-2.085-10.546 1.142l-5.293 6.578c-2.597 3.228-2.085 7.949 1.142 10.546 1.387 1.114 3.047 1.656 4.697 1.656 2.192 0 4.366-.957 5.849-2.798l5.293-6.578c2.596-3.228 2.084-7.95-1.142-10.546z"/><path d="m373.008 204.424c.068 0 .137-.001.205-.003l8.44-.227c4.141-.111 7.407-3.558 7.296-7.698s-3.589-7.438-7.698-7.296l-8.44.227c-4.141.111-7.407 3.558-7.296 7.698.109 4.072 3.444 7.299 7.493 7.299z"/><path d="m366.367 335.509c-3.227-2.597-7.948-2.086-10.545 1.141l-5.294 6.579c-2.597 3.228-2.086 7.948 1.141 10.545 1.386 1.115 3.047 1.657 4.697 1.657 2.193 0 4.366-.957 5.848-2.798l5.294-6.579c2.596-3.228 2.086-7.949-1.141-10.545z"/><path d="m389.938 298.761-6.309-5.611c-3.095-2.755-7.836-2.475-10.588.619-2.753 3.095-2.476 7.835.619 10.588l6.309 5.611c1.429 1.271 3.209 1.896 4.981 1.896 2.067 0 4.125-.85 5.606-2.516 2.754-3.094 2.476-7.834-.618-10.587z"/></g><path d="m299.762 199.618s17.56-14.209 7.836-56.672c-.812-3.547 1.519-7.048 5.137-7.712 8.667-1.591 24.064-2.333 35.522 8.606 1.628 1.555 2.263 3.868 1.722 6.053-2.324 9.386-10.953 36.141-37.312 57.257 0 .001-10.621.536-12.905-7.532z" fill="#d1a08f"/><path d="m273.537 183.194c-43.835 16.633-43.523 71.684-66.709 105.823-15.403 22.679-42.03 37.193-69.363 38.358-3.655.156-5.499 4.429-3.117 7.206 21.134 24.645 59.879 21.439 89.363 13.687 20.186-4.709 40.356-10.35 58.681-20.038 36.176-18.633 80.032-77.746 49.729-120.079-12.633-17.645-38.104-32.061-58.584-24.957z" fill="#97da7b"/><path d="m332.119 208.151c-12.631-17.645-38.102-32.061-58.583-24.958-1.087.412-2.139.855-3.172 1.313 12.255 4.568 23.643 13.577 30.849 23.644 30.303 42.332-13.553 101.446-49.729 120.079-18.325 9.688-38.495 15.328-58.681 20.037-7.295 1.918-15.157 3.555-23.179 4.564 17.747 2.749 37.398-.177 54.084-4.564 20.186-4.709 40.356-10.35 58.681-20.037 36.177-18.632 80.034-77.745 49.73-120.078z" fill="#80d261"/><g fill="#eb5569"><path d="m221.256 177.979c-5.372 9.255-13.553 7.845-21.857 3.026s-13.586-11.224-8.214-20.48 16.459-12.851 24.763-8.031 10.68 16.23 5.308 25.485z"/><path d="m329.547 358.855c8.18 6.9 5.368 14.711-.822 22.05-6.191 7.339-13.416 11.427-21.596 4.526s-9.793-18.443-3.602-25.782c6.19-7.338 17.84-7.694 26.02-.794z"/><path d="m392.145 235.093c10.529 1.914 11.978 10.089 10.26 19.535s-5.95 16.588-16.479 14.674-17.672-11.124-15.955-20.57 11.645-15.553 22.174-13.639z"/><path d="m160.667 256.351c10.529 1.914 11.978 10.089 10.26 19.535-1.717 9.446-5.95 16.588-16.479 14.674s-17.672-11.124-15.955-20.57c1.718-9.447 11.646-15.553 22.174-13.639z"/></g></g></svg>