<svg id="Capa_1" enable-background="new 0 0 512 512" height="512" viewBox="0 0 512 512" width="512" xmlns="http://www.w3.org/2000/svg"><g><path d="m457.768 196.733c1.956-7.783-.252-15.626-5.206-21.212-1.084-1.222-.468-3.148 1.14-3.436l18.823-3.376c12.778-2.292 21.746-14.388 19.483-27.17-1.466-8.28-7.125-14.747-14.397-17.643-1.629-.649-1.814-2.867-.284-3.724l22.727-12.72c11.261-6.304 15.27-20.547 8.955-31.814-4.659-8.308-13.629-12.671-22.536-11.862-1.935.176-3.05-2.127-1.676-3.501l10.66-10.659c6.991-6.991 8.927-17.419 5.332-26.073 0 0-2.997-4.197-4.896-6.235-9.076-9.743-22.987-9.039-32.312.286l-12.005 10.454c-.802.802-1.78-.093-2.537-.655-.54-.401-.896-1.064-.823-1.87.089-.977.113-1.954.079-2.927 0 0-1.161-2.72-1.485-4.15-1.412-6.235-4.438-9.169-10.457-12.543-11.268-6.315-25.512-2.306-31.817 8.954l-12.722 22.725c-.857 1.53-3.075 1.345-3.724-.284-2.896-7.27-9.359-12.926-17.638-14.395-12.784-2.268-21.972 6.699-24.264 19.478l-3.377 18.824c-.289 1.608-2.214 2.223-3.437 1.139-5.795-5.138-14.02-7.323-22.084-4.969-12.145 3.545-19.032 16.409-15.936 28.675l12.465 44.658c4.95 19.607-1.896 41.196-16.185 55.483l-2.615-2.31c-9.125 9.124 7.405 7.404 16.54 16.538s7.415 25.663 16.54 16.538c14.289-14.288 35.045-20.006 54.653-15.057l46.643 11.773c12.522 3.162 25.225-4.424 28.373-16.94z" fill="#4fc660"/><path d="m500.789 23.543c-8.502-3.606-18.7-1.945-25.628 4.982l-11.519 11.518c-2.398 2.398-6.418 1.865-8.109-1.075l-6.854-11.922c.707.867 2.091 1.1 3.038.153l11.059-11.058c9.325-9.324 24.573-9.113 33.65.634 1.894 2.04 3.343 4.335 4.363 6.768z" fill="#3bb74f"/><path d="m316.489 207.681c-1.231-2.542-2.776-5.107-4.932-7.263-6.09-6.09-15.466-7.35-18.337-10.22-1.435-1.435-1.246-3.271 1.799-6.316 14.286-14.285 20.005-35.039 15.051-54.649l-11.627-46.097c-3.103-12.267 3.788-25.132 15.933-28.679 8.065-2.353 16.29-.16 22.081 4.975 1.224 1.078 3.147.466 3.446-1.144l3.366-18.823c2.302-12.777 14.403-21.744 27.188-19.479 8.276 1.471 14.738 7.132 17.63 14.394.656 1.632 2.87 1.821 3.723.284l12.727-22.72c6.309-11.262 20.544-15.268 31.814-8.953 7.394 4.145 11.673 11.699 11.943 19.603-10.658-1.268-22.348 6.029-24.709 14.053l-7.777 24.842c-.852 1.537-3.067 1.348-3.723-.284-2.892-7.263-5.819-15.044-14.095-16.516-12.786-2.266-24.886 6.702-27.188 19.479l-3.366 18.823c-.299 1.61-2.222 2.222-3.446 1.144-5.792-5.136-14.017-7.328-22.081-4.975-12.144 3.548-19.036 16.412-15.933 28.679l11.627 46.097c4.954 19.61-5.715 38.242-20.001 52.527-.428.431-.8.832-1.113 1.218z" fill="#3bb74f"/><g><path d="m311.095 200.935c-3.018-3.018-3.018-7.909 0-10.927l123.917-123.906c3.018-3.017 7.91-3.018 10.928 0s3.018 7.909 0 10.927l-123.917 123.906c-3.018 3.017-7.91 3.018-10.928 0z" fill="#3bb74f"/></g><path d="m8.087 503.89s-7.341-15.931-2.899-24.473c0 0 106.078-161.505 172.845-230.671l65.66-70.489c13.183-13.737 33.58-19.273 50.531-10.601 12.188 6.235 32.028 18.857 32.028 18.857 9.282 9.356 17.128 20.139 23.204 32.014 8.673 16.95 5.204 37.58-8.535 50.763l-33.261 31.912-8.109 2.819-3.045 7.882-31.338 30.071c-30.402 29.342-62.598 56.685-96.378 81.887l-8.336 1.792-4.268 7.46c-39.348 28.409-80.763 53.953-123.935 76.401-4.91 2.553-10.444 3.106-15.557 1.823.002-.003-7.572-6.412-8.607-7.447z" fill="#fec165"/><path d="m16.696 511.334c-5.553-1.121-9.194-4.762-10.228-5.796-6.812-6.811-8.422-17.25-3.978-25.787 18.735-36.026 39.738-70.98 62.652-104.382l9.348-3.499-.476-9.226c1.277-1.8 2.559-3.598 3.848-5.39 16.299-22.661 33.559-44.635 51.721-65.87l10.225-3.302-.067-8.395c9.848-11.159 19.95-22.106 30.3-32.831l47.996-50.014 9.565-2.034 1.137-9.119 13.993-14.578c13.186-13.739 33.818-17.206 50.763-8.538 12.042 6.155 22.948 14.132 32.39 23.573l.365.364c-28.769-13.353-58.046-2.079-80.149 20.954l-56.54 58.91c-66.449 68.839-122.66 146.861-166.915 231.676-.424.812-.82 1.639-1.189 2.477z" fill="#ffaa5f"/><g><g fill="#ffaa5f"><path d="m161.747 301.69-17.612-17.611c-3.65 3.763-8.017 6.746-11.269 10.586l17.953 17.952c3.016 3.016 7.912 3.016 10.928 0s3.016-7.911 0-10.927z"/><path d="m97.584 442.884c-3.016 3.016-7.904 3.023-10.928 0l-17.535-17.534c-3.016-3.016-3.016-7.911 0-10.927 3.023-3.023 7.912-3.016 10.928 0l17.535 17.534c3.023 3.023 3.023 7.904 0 10.927z"/><path d="m183.374 376.929c-3.023 3.023-7.912 3.016-10.928 0l-17.535-17.534c-3.023-3.023-3.023-7.904 0-10.927 3.016-3.016 7.904-3.023 10.928 0l17.535 17.534c3.016 3.016 3.016 7.912 0 10.927z"/><path d="m222.008 338.052-17.543-17.541c-3.016-3.016-3.016-7.911 0-10.927s7.912-3.016 10.928 0l17.543 17.541c3.016 3.016 3.016 7.911 0 10.927s-7.912 3.016-10.928 0z"/><path d="m307.66 301.201-11.153 10.701-18.076-18.074c-3.016-3.016-3.023-7.904 0-10.927 3.016-3.016 7.912-3.016 10.928 0z"/><path d="m250.196 207.144-17.596-17.595c-4.084 3.037-7.693 6.913-10.977 10.878l17.646 17.645c3.016 3.016 7.904 3.023 10.928 0 3.015-3.017 3.015-7.912-.001-10.928z"/><path d="m150.205 405.274 18.587 18.586c-4.174 3.125-8.378 6.206-12.604 9.251l-16.911-16.91c-3.023-3.023-3.016-7.911 0-10.927s7.904-3.024 10.928 0z"/><path d="m216.668 253.165c3.016-3.016 7.912-3.016 10.928 0l17.535 17.534c3.023 3.023 3.016 7.911 0 10.927s-7.904 3.023-10.928 0l-17.535-17.534c-3.017-3.016-3.016-7.911 0-10.927z"/><path d="m96.552 385.178-15.691-15.69c-3.782 3.671-7.13 7.681-9.659 12.195l14.422 14.422c3.016 3.016 7.912 3.016 10.928 0s3.016-7.911 0-10.927z"/></g></g><g fill="#ff995c"><path d="m84.998 394.4c-1.061-.382-2.058-.983-2.906-1.831l-17.055-17.055c.035-.05.071-.099.106-.148l8.874-12.721 19 19c.177.177.346.361.495.552-2.872 4.043-5.721 8.109-8.514 12.203z"/><g><path d="m149.38 310.573c-.757-.361-1.471-.863-2.1-1.492l-17.699-17.699 10.161-11.689.007-.007 18.463 18.463c.361.361.679.75.947 1.16-3.288 3.726-6.548 7.481-9.779 11.264z"/><path d="m237.867 216.047c-.778-.368-1.499-.877-2.135-1.513l-17.692-17.692 10.699-11.151 17.918 17.918c.573.573 1.04 1.209 1.386 1.895l-.078.078c-.629.615-1.252 1.252-1.86 1.888l-7.403 7.715z"/><path d="m238.701 215.184 7.403-7.715c.608-.636 1.23-1.273 1.86-1.888z"/></g></g></g></svg>