<svg id="Capa_1" enable-background="new 0 0 512 512" height="512" viewBox="0 0 512 512" width="512" xmlns="http://www.w3.org/2000/svg"><g><path d="m382.336 306.995c-5.981-11.473-14.221-21.795-24.399-30.276-8.22-6.85-8.22-19.475 0-26.326 22.562-18.801 35.607-46.653 35.607-76.022v-18.619c0-65.192-36.833-124.788-95.142-153.943-4.824-2.412-10.501-2.412-15.325 0-34.673 17.336-61.752 45.437-78.008 79.077v149.142c5.127 7.538 11.322 14.406 18.473 20.365 8.22 6.85 8.22 19.476 0 26.326-7.151 5.959-13.346 12.828-18.473 20.366v168.938c1.093 1.648 2.236 3.267 3.427 4.856 19.416 25.886 49.886 41.121 82.244 41.121 18.289 0 35.975-4.867 51.402-13.773z" fill="#bc7c63"/><path d="m357.938 250.393c22.562-18.801 35.607-46.653 35.607-76.022v-18.619c0-65.192-36.833-124.788-95.142-153.943-4.824-2.412-10.502-2.412-15.325 0-1.483.742-2.947 1.51-4.403 2.291 55.758 29.905 90.755 88.114 90.755 151.652v18.619c0 29.369-13.045 57.221-35.607 76.022-8.22 6.85-8.22 19.476 0 26.326 10.177 8.481 18.418 18.804 24.399 30.276l-34.173 162.588c-4.631 22.032-22.652 38.931-45 41.65-.14.017-.28.034-.419.05 3.995.474 8.038.716 12.112.716 18.289 0 35.975-4.867 51.402-13.773l40.194-191.232c-5.98-11.473-14.221-21.795-24.399-30.276-8.222-6.849-8.222-19.475-.001-26.325z" fill="#b3634b"/><path d="m386.933 195.468c-17.855 5.947-37.155 5.935-54.951.096.491-6.909.753-14.001.753-21.192v-18.62c0-17.623-.915-35.124-2.652-51.865 9.505 2.799 19.376 4.216 29.262 4.216 8.712 0 17.439-1.099 25.93-3.314.166-.043.325-.1.485-.153-1.54-4.95-3.297-9.817-5.268-14.587-17.361 4.336-35.809 3.205-52.499-3.17-2.001-14.032-4.601-27.324-7.77-39.426-1.082-4.129-5.311-6.593-9.432-5.518-4.129 1.081-6.598 5.304-5.518 9.432 6.664 25.447 10.742 56.449 11.753 88.647-17.133 5.401-35.445 5.402-52.576-.001.404-13.052 1.302-25.905 2.703-38.367.477-4.24-2.574-8.064-6.815-8.541-4.255-.484-8.064 2.575-8.541 6.815-2.025 18.016-3.051 36.801-3.051 55.833v18.62c0 30.402 4.527 59.157 12.422 78.891 2.001 5.002 2.001 15.585 0 20.587-7.894 19.734-12.422 48.489-12.422 78.891v56.455c0 18.502 1.636 36.781 4.73 52.864.712 3.696 1.504 7.294 2.355 10.694.877 3.51 4.027 5.853 7.489 5.853.621 0 1.251-.075 1.881-.233 4.14-1.035 6.656-5.23 5.62-9.37-.782-3.128-1.513-6.448-2.171-9.865-2.913-15.135-4.452-32.405-4.452-49.943v-7.235c8.809 2.451 17.885 3.732 27.111 3.771h.034c4.252 0 7.707-3.438 7.725-7.693.018-4.268-3.427-7.742-7.693-7.76-9.294-.039-18.41-1.551-27.177-4.464v-33.074c0-28.511 4.125-55.174 11.317-73.153 3.475-8.69 3.475-23.373 0-32.063-7.192-17.979-11.317-44.642-11.317-73.153v-18.344c8.702 2.326 17.619 3.512 26.542 3.512 8.92 0 17.839-1.186 26.541-3.512v18.344c0 28.511-4.125 55.174-11.317 73.153-3.475 8.69-3.475 23.373 0 32.063 5.46 13.648 9.253 32.856 10.682 54.089.275 4.081 3.671 7.207 7.701 7.207.175 0 .35-.006.527-.017 4.258-.287 7.477-3.971 7.19-8.228-1.535-22.803-5.709-43.681-11.753-58.789-2.001-5.002-2.001-15.585 0-20.587 4.577-11.441 8.012-25.924 10.099-41.991 9.41 2.745 19.136 4.126 28.874 4.126 9.042 0 18.089-1.208 26.9-3.592 2.174-5.32 3.885-10.836 5.11-16.485-1.39-.361-2.896-.342-4.361.146z" fill="#b3634b"/><path d="m127.062 1.809c-4.824-2.412-10.502-2.412-15.325 0-58.309 29.155-95.142 88.751-95.142 153.943v18.619c0 29.369 13.045 57.221 35.607 76.022 8.22 6.85 8.22 19.476 0 26.326-22.562 18.801-35.607 46.653-35.607 76.022v56.455c0 22.244 7.215 43.888 20.561 61.683 19.415 25.886 49.885 41.121 82.243 41.121 32.358 0 62.828-15.235 82.243-41.122 13.346-17.795 20.561-39.439 20.561-61.683v-56.455c0-29.369-13.045-57.221-35.607-76.022-8.22-6.85-8.22-19.475 0-26.326 22.562-18.801 35.607-46.653 35.607-76.022v-18.619c.001-65.191-36.832-124.787-95.141-153.942z" fill="#ffcdbe"/><path d="m154.387 214.53c-6.055 4.037-13.17 6.191-20.447 6.191h-29.08c-7.277 0-14.392-2.154-20.447-6.191-10.255-6.837-16.415-18.346-16.415-30.671v-65.942c0-17.186 8.59-33.236 22.889-42.769 17.266-11.511 39.76-11.511 57.026 0 14.3 9.533 22.889 25.583 22.889 42.769v65.942c0 12.325-6.16 23.834-16.415 30.671z" fill="#fea3c4"/><path d="m84.412 312.582c6.055-4.037 13.17-6.191 20.447-6.191h29.08c7.277 0 14.392 2.154 20.447 6.191 10.255 6.837 16.415 18.346 16.415 30.671v65.943c0 17.186-8.589 33.236-22.889 42.769-17.266 11.511-39.76 11.511-57.026 0-14.3-9.533-22.889-25.583-22.889-42.769v-65.943c0-12.325 6.16-23.834 16.415-30.671z" fill="#fea3c4"/><path d="m186.597 250.393c22.562-18.801 35.607-46.653 35.607-76.022v-18.619c0-65.192-36.833-124.788-95.142-153.943-4.824-2.412-10.501-2.412-15.325 0-1.411.706-2.799 1.444-4.184 2.185 55.875 29.873 90.957 88.144 90.957 151.757v18.619c0 29.369-13.045 57.221-35.607 76.022-8.22 6.85-8.22 19.476 0 26.326 22.562 18.801 35.607 46.653 35.607 76.022v56.455c0 22.244-7.215 43.888-20.561 61.683-17.025 22.7-42.551 37.207-70.396 40.435 3.909.453 7.863.687 11.847.687 32.358 0 62.828-15.235 82.243-41.122 13.346-17.795 20.561-39.439 20.561-61.683v-56.455c0-29.369-13.045-57.221-35.607-76.022-8.22-6.849-8.22-19.475 0-26.325z" fill="#ebaca4"/><path d="m147.912 75.147c-12.087-8.058-26.736-10.467-40.36-7.243 5.837 1.382 11.487 3.79 16.666 7.243 14.3 9.533 22.889 25.583 22.889 42.769v65.943c0 12.325-6.16 23.834-16.415 30.671-6.055 4.037-13.17 6.191-20.447 6.191h23.694c7.277 0 14.392-2.154 20.447-6.191 10.255-6.837 16.415-18.346 16.415-30.671v-65.943c.001-17.186-8.589-33.236-22.889-42.769z" fill="#fe93c9"/><path d="m154.387 312.582c-6.055-4.037-13.17-6.191-20.447-6.191h-23.694c7.277 0 14.392 2.154 20.447 6.191 10.255 6.837 16.415 18.346 16.415 30.671v65.942c0 17.186-8.589 33.236-22.889 42.769-5.178 3.452-10.829 5.861-16.666 7.242 13.624 3.225 28.272.816 40.36-7.242 14.3-9.533 22.889-25.583 22.889-42.769v-65.942c0-12.325-6.16-23.834-16.415-30.671z" fill="#fe93c9"/><g><circle cx="393.005" cy="408.627" fill="#d83131" r="102.4"/><path d="m422.451 347.035c-9.701-4.651-20.667-7.083-32.248-6.618-35.306 1.418-63.992 30.105-65.408 65.411-.464 11.58 1.968 22.544 6.619 32.244 1.268 2.645 4.788 3.223 6.862 1.149l85.324-85.324c2.073-2.074 1.495-5.594-1.149-6.862z" fill="#f8f6f6"/><path d="m363.56 470.219c9.701 4.651 20.666 7.083 32.247 6.618 35.306-1.417 63.992-30.104 65.409-65.41.465-11.58-1.968-22.545-6.618-32.246-1.268-2.645-4.788-3.223-6.862-1.149l-85.324 85.324c-2.075 2.075-1.497 5.595 1.148 6.863z" fill="#f8f6f6"/><path d="m393.005 306.227c-4.008 0-7.959.238-11.847.686 50.972 5.874 90.553 49.168 90.553 101.714s-39.581 95.841-90.553 101.714c3.888.448 7.839.686 11.847.686 56.554 0 102.4-45.846 102.4-102.4s-45.846-102.4-102.4-102.4z" fill="#c41926"/><g fill="#e2e2e2"><path d="m417.356 360.14 6.243-6.243c2.074-2.074 1.496-5.594-1.149-6.862-9.701-4.651-20.667-7.083-32.248-6.618-3.059.123-6.064.464-9.01.983 13.981 2.454 26.497 9.163 36.164 18.74z"/><path d="m381.163 475.865c3.986.699 8.092 1.052 12.286 1.025.13-.001.262-.003.393-.004.653-.008 1.308-.022 1.965-.048 35.306-1.417 63.992-30.104 65.409-65.41.465-11.581-1.968-22.545-6.618-32.246-1.268-2.645-4.788-3.223-6.862-1.149l-12.568 12.568c1.569 5.743 2.41 11.786 2.41 18.026 0 33.658-24.365 61.624-56.415 67.238z"/></g></g></g></svg>