<svg id="Layer_1" enable-background="new 0 0 512 512" viewBox="0 0 512 512" xmlns="http://www.w3.org/2000/svg"><g><circle cx="74.735" cy="181.265" fill="#eb5569" r="55.167"/><path d="m74.735 126.097c-5.551 0-10.91.82-15.964 2.345.281 1.952.626 3.88 1.04 5.78 1.593 7.319 3.809 13.936 6.528 19.898.671 1.471.577 3.172-.228 4.574-3.327 5.797-6.039 12.391-10.393 16.745-7.469 7.469-21.527 10.103-26.852 19.307-2.145 3.707-2.63 8.148-2.642 12.81 9.341 17.199 27.563 28.876 48.511 28.876 30.468 0 55.167-24.699 55.167-55.167s-24.698-55.168-55.167-55.168z" fill="#e53950"/><path d="m235.541 112.891c12.584 57.816-26.019 89.783-57.18 96.566s-82.624-7.27-95.208-65.086c-9.862-45.307 18.951-106.628 37.572-132.281 5.141-7.083 9.506-11.447 12.065-12.004 2.066-.45 6.233.868 11.771 3.658 2.337 1.177 4.918 2.616 7.689 4.295 28.254 17.124 73.833 61.396 83.291 104.852z" fill="#46cc8d"/><path d="m237.905 110.687c-9.459-43.456-57.401-85.524-85.655-102.647 20.455 16.072 43.523 39.339 56.558 64.678.93 1.809.72 4-.569 5.573-4.813 5.869-10.544 11.003-17.063 15.178-8.492 5.439-16.086 12.617-22.219 21.447-16.624 23.93-18.069 54.294-6.196 79.123-1.584.47-3.152.874-4.696 1.21-14.718 3.204-33.966 1.759-51.507-6.75 21.282 20.749 51.047 25.476 71.804 20.958 31.16-6.783 72.127-40.954 59.543-98.77z" fill="#00c27a"/><path d="m177.933 63.051c-3.822-1.749-8.339-.067-10.087 3.757l-8.634 18.882-9.432-43.333c-.894-4.107-4.946-6.708-9.056-5.819-4.108.894-6.713 4.949-5.819 9.056l12.569 57.746-18.298-15.823c-3.179-2.749-7.986-2.399-10.736.779-2.749 3.18-2.401 7.987.779 10.736l33.652 29.099 8.519 39.137c.776 3.562 3.928 5.994 7.43 5.994.536 0 1.081-.057 1.626-.175 4.108-.894 6.713-4.949 5.819-9.056l-11.654-53.541 17.08-37.353c1.747-3.822.065-8.338-3.758-10.086z" fill="#6ed5a1"/><path d="m457.902 270.66c-39.845 43.742-91.428 30.134-115.003 8.659s-41.924-71.568-2.079-115.31c31.224-34.278 97.902-46.302 129.599-45.979 8.752.089 14.837 1.12 16.773 2.884 1.563 1.424 2.902 5.584 3.835 11.715 4.409 28.968-.239 101.929-33.125 138.031z" fill="#46cc8d"/><path d="m462.07 148.493c-3.108-2.831-7.922-2.608-10.753.501l-46.476 51.021c-.316.283-.606.591-.869.92l2.599-27.181c.4-4.185-2.668-7.901-6.852-8.301-4.198-.406-7.901 2.668-8.301 6.852l-4.534 47.425-23.503 25.801c-2.831 3.108-2.607 7.922.501 10.753 1.459 1.329 3.294 1.985 5.124 1.985 2.067 0 4.127-.837 5.629-2.486l39.265-43.105 36.687-7.01c4.129-.789 6.836-4.776 6.048-8.905-.789-4.129-4.771-6.833-8.905-6.048l-16.737 3.198 31.579-34.668c2.83-3.108 2.605-7.922-.502-10.752z" fill="#6ed5a1"/><path d="m491.027 132.628c-.933-6.131-2.272-10.291-3.835-11.715-1.861-1.695-7.556-2.713-15.766-2.869 2.915 30.524-2.411 92.587-29.867 127.634-.972 1.241-2.45 1.981-4.026 1.981h-115.23c4.697 13.069 12.325 24.125 20.596 31.659 23.576 21.476 75.158 35.083 115.003-8.659 32.886-36.101 37.535-109.062 33.125-138.031z" fill="#00c27a"/><path d="m382.706 131.378c17.345-23.77 19.443-54.004 8.118-79.025-5.879-12.989-8.743-27.139-8.53-41.395l.087-5.805c.052-3.502-3.375-6.003-6.694-4.884l-5.501 1.853c-13.511 4.551-27.861 6.141-42.024 4.504-27.284-3.152-55.436 8.069-72.781 31.839-5.879 8.056-10.006 16.854-12.452 25.94-4.808 17.854-15.885 33.298-31.455 43.27-8.492 5.439-16.086 12.617-22.219 21.447-23.855 34.339-16.455 81.925 16.702 107.396 35.249 27.078 85.666 19.681 111.713-16.014 5.879-8.056 10.006-16.854 12.452-25.94 4.807-17.851 3.714-38.035 19.247-48.058 7.905-5.1 27.459-7.072 33.337-15.128z" fill="#46cc8d"/><path d="m342.112 53.308c-3.395-2.478-8.157-1.733-10.635 1.662l-46.444 63.647c-.008.011-.016.022-.024.033l-17.03 23.337-4.046-25.892c-.649-4.154-4.544-6.993-8.695-6.345-4.154.649-6.995 4.542-6.345 8.695l6.396 40.933-53.889 73.849c-2.478 3.395-1.734 8.157 1.662 10.635 1.353.988 2.924 1.463 4.48 1.463 2.348 0 4.665-1.083 6.155-3.125l81.762-112.047 40.932-6.396c4.154-.649 6.994-4.542 6.345-8.695s-4.541-6.994-8.695-6.345l-25.892 4.046 35.624-48.819c2.479-3.396 1.735-8.158-1.661-10.636z" fill="#6ed5a1"/><path d="m390.824 52.353c-5.879-12.989-8.743-27.139-8.53-41.395l.087-5.805c.052-3.502-3.375-6.003-6.694-4.884l-5.501 1.853c-2.456.827-4.94 1.556-7.445 2.186 1.192 9.564 3.793 18.924 7.787 27.747 11.325 25.021 9.227 55.255-8.118 79.025-5.879 8.056-12.998 14.67-20.905 19.772-15.533 10.024-26.874 25.565-31.681 43.415-2.447 9.086-6.574 17.884-12.453 25.94-25.211 34.549-73.251 42.587-108.272 18.515 4.544 6.637 10.178 12.665 16.857 17.796 35.249 27.078 85.666 19.681 111.713-16.014 5.879-8.056 10.006-16.854 12.453-25.94 4.807-17.851 16.148-33.392 31.681-43.415 7.907-5.102 15.026-11.717 20.905-19.772 17.344-23.769 19.441-54.002 8.116-79.024z" fill="#00c27a"/><path d="m445.146 294.021c0 6.787-6.797 12.591-8.471 18.851-1.731 6.477 1.203 14.892-2.078 20.563-3.328 5.752-12.114 7.398-16.783 12.067s-6.315 13.454-12.067 16.782c-5.671 3.281-14.086.347-20.562 2.078-6.26 1.673-12.063 8.471-18.85 8.471s-12.591-6.797-18.851-8.471c-6.477-1.731-14.892 1.203-20.563-2.078-5.752-3.328-7.398-12.114-12.067-16.783-4.668-4.668-13.454-6.315-16.782-12.067-3.281-5.671-.347-14.086-2.078-20.562-1.673-6.26-8.47-12.063-8.47-18.85s6.797-12.591 8.471-18.851c1.731-6.477-1.203-14.892 2.078-20.563 3.328-5.752 12.114-7.398 16.783-12.067 4.668-4.668 6.315-13.454 12.067-16.782 5.671-3.281 14.086-.347 20.562-2.078 6.26-1.673 12.063-8.471 18.85-8.471s12.591 6.797 18.851 8.471c6.477 1.731 14.892-1.203 20.563 2.078 5.752 3.328 7.398 12.114 12.067 16.783 2.102 2.102 5.038 3.591 7.935 5.118 3.538 1.865 1.128 5.798 2.958 8.961 3.281 5.671 6.237 12.074 7.968 18.55 1.671 6.259 8.469 12.063 8.469 18.85z" fill="#b0e7c9"/><path d="m445.146 294.021c0-6.787-6.797-12.59-8.471-18.85-1.731-6.477 1.203-14.892-2.078-20.562-1.83-3.163-5.31-5.084-8.848-6.949h-118.83c-3.538 1.865-7.017 3.786-8.846 6.948-3.281 5.671-.347 14.086-2.078 20.563-1.673 6.26-8.471 12.063-8.471 18.851 0 .31.014.618.042.925h157.538c.027-.308.042-.616.042-.926z" fill="#91deb6"/><path d="m356.602 245.326c0 30.468-14.966 54.155-45.434 54.155s-55.167-24.699-55.167-55.167 24.699-55.167 55.167-55.167c9.987 0 19.355 2.654 27.435 7.295 16.571 9.516 17.999 28.403 17.999 48.884z" fill="#eb5569"/><path d="m338.603 196.441c4.307 7.398 6.943 15.87 7.371 24.888.39 8.225-1.022 16.077-3.875 23.197-.764 1.906-2.64 3.134-4.694 3.134h-81.305c1.73 28.91 25.723 51.822 55.067 51.822 30.468 0 55.168-24.699 55.168-55.167 0-20.483-11.161-38.357-27.732-47.874z" fill="#e53950"/><path d="m280.879 267.956c0 10.86-4.23 20.145-6.907 30.161-2.77 10.363 1.925 23.827-3.325 32.9-5.325 9.204-19.383 11.838-26.852 19.307s-10.103 21.527-19.307 26.852c-9.073 5.249-22.537.554-32.9 3.324-10.016 2.677-19.301 13.553-30.16 13.553-10.86 0-20.145-10.876-30.161-13.553-10.363-2.77-23.827 1.925-32.9-3.325-9.204-5.325-11.838-19.383-19.307-26.852s-21.527-10.103-26.852-19.307c-5.249-9.073-.554-22.537-3.324-32.9-2.677-10.016-13.553-19.301-13.553-30.16 0-10.86 10.876-20.145 13.553-30.161 2.77-10.363-1.925-23.827 3.325-32.9 5.325-9.204 19.383-11.838 26.852-19.307s10.103-21.527 19.307-26.852c9.073-5.249 22.537-.554 32.9-3.324 10.016-2.677 19.301-13.553 30.16-13.553 10.86 0 20.145 10.876 30.161 13.553 10.363 2.77 23.827-1.925 32.9 3.325 9.204 5.325 11.838 19.383 19.307 26.852s15.782 12.27 21.107 21.473c5.249 9.073.426 23.52 3.195 33.882 2.676 10.017 12.781 16.153 12.781 27.012z" fill="#b0e7c9"/><path d="m287.524 267.956c0-10.859-10.876-20.145-13.553-30.16-2.77-10.363 1.925-23.827-3.324-32.9-5.325-9.204-19.383-11.838-26.852-19.307-.016-.016-.032-.032-.048-.048 4.436 9.045.147 21.948 2.822 31.958 2.106 7.878 9.285 15.305 12.253 23.401 1.204 3.285-1.291 6.759-4.79 6.759h-209.856c-4.015 6.521-8.846 13.06-8.846 20.297 0 10.86 10.876 20.145 13.553 30.16 2.77 10.363-1.925 23.827 3.324 32.9 5.325 9.204 19.383 11.838 26.852 19.307s10.103 21.527 19.307 26.852c9.073 5.25 22.537.555 32.9 3.325 10.016 2.677 19.301 13.553 30.161 13.553s20.145-10.876 30.16-13.553c10.363-2.77 23.827 1.925 32.9-3.324 9.204-5.325 11.838-19.383 19.307-26.852s21.527-10.103 26.852-19.307c5.25-9.073.555-22.537 3.325-32.9 2.677-10.015 13.553-19.301 13.553-30.161z" fill="#91deb6"/><path d="m222.13 232.909c-2.102-3.641-6.757-4.888-10.397-2.786l-42.694 24.65v-65.627c0-4.204-3.408-7.611-7.611-7.611-4.204 0-7.611 3.408-7.611 7.611v34.103l-30.872-17.824c-3.641-2.104-8.296-.855-10.397 2.786-2.102 3.641-.855 8.296 2.786 10.397l38.484 22.219v27.02c-.001.076-.001.153 0 .229v7.355c0 4.204 3.408 7.611 7.611 7.611 4.204 0 7.611-3.408 7.611-7.611v-3.079l50.305-29.044c3.64-2.103 4.887-6.758 2.785-10.399z" fill="#ceefdd"/><path d="m3.806 315.243v18.458c0 42.037 34.078 76.115 76.115 76.115h352.159c42.037 0 76.115-34.078 76.115-76.115v-18.458l-252.195-15.762z" fill="#eaf6ff"/><path d="m508.194 273.031c0-2.802-2.272-5.074-5.074-5.074h-494.24c-2.802 0-5.074 2.272-5.074 5.074v42.212h504.388z" fill="#26a6fe"/><path d="m487.895 313.974c-.307 41.774-34.266 75.544-76.113 75.544h-352.159c-15.831 0-30.534-4.834-42.712-13.105 13.692 20.159 36.804 33.403 63.01 33.403h352.159c42.037 0 76.115-34.078 76.115-76.115v-18.458z" fill="#d8ecfe"/><path d="m503.12 267.956h-15.223v45.447c0 .615-.008 1.228-.022 1.839h20.319v-42.212c0-2.802-2.272-5.074-5.074-5.074z" fill="#0593fc"/><g fill="#eb5569"><path d="m232.195 433.728c-.025 0-.05 0-.075 0-4.204.041-7.578 3.481-7.538 7.684l.38 39.302-30.098-43.582c-1.893-2.741-5.348-3.933-8.528-2.942-3.18.992-5.346 3.936-5.346 7.267v62.931c0 4.204 3.408 7.612 7.611 7.612 4.204 0 7.611-3.408 7.611-7.612v-38.514l28.678 41.526c2.248 3.247 5.993 4.627 9.54 3.521 3.623-1.131 5.964-4.53 5.963-8.731l-.589-60.924c-.04-4.178-3.44-7.538-7.609-7.538z"/><path d="m307.899 433.728c-.025 0-.05 0-.075 0-4.203.041-7.578 3.481-7.537 7.685l.38 39.302-30.098-43.583c-1.892-2.741-5.347-3.933-8.528-2.942-3.18.992-5.346 3.936-5.346 7.267v62.931c0 4.204 3.408 7.612 7.611 7.612s7.612-3.408 7.612-7.612v-38.514l28.677 41.526c2.248 3.247 5.992 4.63 9.54 3.521 3.623-1.131 5.964-4.53 5.964-8.732l-.589-60.924c-.041-4.177-3.441-7.537-7.611-7.537z"/><path d="m157.077 433.728c-4.204 0-7.611 3.408-7.611 7.611v63.049c0 4.204 3.408 7.612 7.611 7.612 4.204 0 7.611-3.408 7.611-7.612v-63.048c.001-4.204-3.407-7.612-7.611-7.612z"/><path d="m366.335 449.239c4.204 0 7.611-3.408 7.611-7.612s-3.408-7.611-7.611-7.611h-26.324c-4.204 0-7.612 3.408-7.612 7.611v62.473c0 4.204 3.408 7.612 7.612 7.612h26.324c4.204 0 7.611-3.408 7.611-7.612s-3.408-7.611-7.611-7.611h-18.712v-16.013h16.771c4.204 0 7.612-3.408 7.612-7.611s-3.408-7.612-7.612-7.612h-16.771v-16.013h18.712z"/><path d="m100.092 433.728h-17.857c-2.021 0-3.959.804-5.387 2.234-1.428 1.431-2.228 3.37-2.224 5.391v.044.007 61.959c0 .5.049.988.141 1.461.108 1.87.901 3.639 2.236 4.965 1.426 1.416 3.354 2.21 5.362 2.21h.029c.54-.002 13.27-.052 18.355-.14 18.784-.328 32.417-16.728 32.417-38.996.001-23.407-13.29-39.135-33.072-39.135zm.39 62.911c-2.414.042-6.721.076-10.533.099-.024-7.454-.056-18.461-.056-23.943 0-4.582-.018-16.089-.032-23.843h10.231c13.161 0 17.849 12.353 17.849 23.913.001 11.682-5.398 23.564-17.459 23.774z"/><path d="m421.357 480.835c10.488-2.832 18.202-12.12 18.202-23.11 0-13.232-11.181-23.997-24.925-23.997h-16.754c-.003 0-.007 0-.01 0s-.007 0-.01 0c-4.204 0-7.611 3.408-7.611 7.611v63.049c0 4.204 3.408 7.612 7.611 7.612 4.204 0 7.612-3.408 7.612-7.612v-18.562l20.763 23.59c1.504 1.71 3.605 2.583 5.717 2.583 1.786 0 3.58-.625 5.026-1.898 3.156-2.777 3.462-7.587.685-10.742zm-6.723-31.884c5.259 0 9.702 4.018 9.702 8.774s-4.443 8.774-9.702 8.774c-2.113 0-5.737.015-9.069.031l-.051-17.579z"/></g></g><g/><g/><g/><g/><g/><g/><g/><g/><g/><g/><g/><g/><g/><g/><g/></svg>