<svg id="Capa_1" enable-background="new 0 0 512 512" height="512" viewBox="0 0 512 512" width="512" xmlns="http://www.w3.org/2000/svg"><g><path d="m105.577 257.091h300.845v76.607h-300.845z" fill="#7a8c98"/><path d="m105.577 257.091h45.323v76.607h-45.323z" fill="#596c76"/><g><g><path d="m200.699 5.332c-.429-2.201-2.15-3.922-4.351-4.351-16.702-3.254-34.669 1.586-47.606 14.523s-17.777 30.904-14.523 47.606c.429 2.201 2.15 3.922 4.351 4.351 16.702 3.254 34.669-1.586 47.606-14.523s17.777-30.904 14.523-47.606z" fill="#9be69d"/><path d="m139.228 112.613c-4.254 0-7.709-3.44-7.726-7.697-.091-23.68-9.878-43.863-28.305-58.365-3.353-2.639-3.932-7.497-1.293-10.85 2.638-3.354 7.496-3.932 10.85-1.293 22.265 17.523 34.091 41.884 34.201 70.449.016 4.267-3.43 7.74-7.697 7.756-.01 0-.02 0-.03 0z" fill="#d1a08f"/><path d="m241.704 146.445-18.058 54.254c-3.386 10.174-9.835 18.684-18.117 24.661-8.282 5.97-18.396 9.401-29.115 9.401-10.932 0-21.039-3.526-29.247-9.504-4.726-3.445-11.153-3.445-15.879 0-2.297 1.671-4.748 3.158-7.317 4.417-2.024 1.001-4.122 1.862-6.287 2.577-4.917 1.627-10.181 2.51-15.651 2.51-21.437 0-40.459-13.722-47.231-34.062l-18.05-54.254c-1.715-5.153-2.518-10.336-2.518-15.393 0-25.787 20.877-48.439 48.542-48.439 13.913 0 26.855 4.115 37.691 11.19 11.403 7.442 26.111 7.442 37.522 0 10.836-7.074 23.778-11.19 37.684-11.19 33.104 0 56.484 32.421 46.031 63.832z" fill="#fe646f"/><path d="m123.971 229.674c-2.024 1.001-4.122 1.862-6.287 2.577-4.917 1.627-10.181 2.51-15.651 2.51-21.437 0-40.459-13.722-47.231-34.062l-18.05-54.254c-1.715-5.153-2.518-10.336-2.518-15.393 0-25.787 20.877-48.439 48.542-48.439 13.913 0 26.855 4.115 37.691 11.19 0 0-35.755-5.786-35.755 57.405 0 41.158 23.13 66.092 39.259 78.466z" fill="#fd4755"/></g><g><path d="m434.246 5.332c-.429-2.201-2.15-3.922-4.351-4.351-16.702-3.254-34.669 1.586-47.606 14.523s-17.777 30.904-14.523 47.606c.429 2.201 2.15 3.922 4.351 4.351 16.702 3.254 34.669-1.586 47.606-14.523s17.777-30.904 14.523-47.606z" fill="#9be69d"/><path d="m372.775 112.613c-4.254 0-7.709-3.44-7.726-7.697-.091-23.68-9.878-43.863-28.305-58.365-3.353-2.639-3.932-7.497-1.293-10.85 2.638-3.354 7.496-3.932 10.85-1.293 22.265 17.523 34.091 41.884 34.201 70.449.016 4.267-3.43 7.74-7.697 7.756-.01 0-.02 0-.03 0z" fill="#d1a08f"/><path d="m475.251 146.445-18.058 54.254c-3.386 10.174-9.835 18.684-18.117 24.661-8.282 5.97-18.396 9.401-29.115 9.401-10.932 0-21.039-3.526-29.247-9.504-4.726-3.445-11.153-3.445-15.879 0-2.297 1.671-4.748 3.158-7.317 4.417-2.024 1.001-4.122 1.862-6.287 2.577-4.917 1.627-10.181 2.51-15.651 2.51-21.437 0-40.459-13.722-47.231-34.062l-18.05-54.254c-1.715-5.153-2.518-10.336-2.518-15.393 0-25.787 20.877-48.439 48.542-48.439 13.913 0 26.855 4.115 37.691 11.19 11.403 7.442 26.111 7.442 37.522 0 10.836-7.074 23.778-11.19 37.684-11.19 33.104 0 56.484 32.421 46.031 63.832z" fill="#fe646f"/><path d="m357.518 229.674c-2.024 1.001-4.122 1.862-6.287 2.577-4.917 1.627-10.181 2.51-15.651 2.51-21.437 0-40.459-13.722-47.231-34.062l-18.05-54.254c-1.715-5.153-2.518-10.336-2.518-15.393 0-25.787 20.877-48.439 48.542-48.439 13.913 0 26.855 4.115 37.691 11.19 0 0-35.755-5.786-35.755 57.405 0 41.158 23.13 66.092 39.259 78.466z" fill="#fd4755"/></g></g><path d="m439.882 315.888h-367.764c-20.859 0-38.812 14.737-42.877 35.196l-21.596 108.68c-5.372 27.036 15.313 52.236 42.877 52.236h410.955c27.565 0 48.25-25.2 42.877-52.236l-21.596-108.681c-4.064-20.459-22.017-35.195-42.876-35.195z" fill="#01d0fb"/><path d="m99.001 511.995h-48.48c-27.564 0-48.246-25.199-42.876-52.231l21.598-108.692c4.06-20.457 22.013-35.193 42.876-35.193h48.48c-20.862 0-38.816 14.736-42.876 35.193l-21.598 108.692c-5.37 27.032 15.311 52.231 42.876 52.231z" fill="#01c0fa"/><path d="m79.51 399.483 6.262-31.513c1.708-8.597 9.252-14.79 18.018-14.79h304.42c8.765 0 16.309 6.193 18.018 14.79l6.262 31.513c2.257 11.361-6.435 21.95-18.018 21.95h-316.944c-11.583 0-20.276-10.59-18.018-21.95z" fill="#c8effe"/><path d="m131.463 421.433h-33.936c-11.582 0-20.276-10.591-18.018-21.949l6.265-31.517c1.705-8.598 9.249-14.789 18.018-14.789h33.936c-8.769 0-16.313 6.191-18.018 14.789l-6.265 31.517c-2.259 11.358 6.436 21.949 18.018 21.949z" fill="#99e6fc"/><path d="m429.981 274.902h-347.962c-21.313 0-39.784-14.762-44.482-35.551l-1.595-7.058c-1.476-6.532 3.49-12.746 10.187-12.746h419.741c6.697 0 11.663 6.214 10.187 12.746l-1.595 7.058c-4.697 20.789-23.168 35.551-44.481 35.551z" fill="#a8d3d8"/><path d="m157.488 274.902h-75.469c-21.31 0-39.775-14.768-44.474-35.556l-1.598-7.053c-1.481-6.532 3.484-12.754 10.186-12.754h75.469c-6.702 0-11.667 6.222-10.197 12.754l1.598 7.053c4.7 20.788 23.175 35.556 44.485 35.556z" fill="#8ebac5"/><path d="m394.148 485.564h-276.296c-8.972 0-16.246-7.273-16.246-16.246 0-8.972 7.273-16.246 16.246-16.246h276.296c8.972 0 16.246 7.273 16.246 16.246 0 8.973-7.274 16.246-16.246 16.246z" fill="#e8edf2"/><path d="m158.589 485.568h-40.734c-8.982 0-16.249-7.277-16.249-16.249 0-4.486 1.811-8.545 4.752-11.486s7.011-4.763 11.497-4.763h40.734c-4.486 0-8.545 1.822-11.486 4.763s-4.752 7-4.752 11.486c0 8.971 7.266 16.249 16.238 16.249z" fill="#d9e7ec"/><g fill="#99e6fc"><path d="m309.214 453.073h15.453v32.491h-15.453z"/><path d="m187.333 453.073h15.453v32.491h-15.453z"/></g></g></svg>